# xmcd
# 
# Track frame offsets:
#     150
#     21113
#     38198
#     56658
#     79948
#     101838
#     121858
#     140803
#     160275
#     176505
#     196678
# 
# Disc length: 3075
# 
# Revision: 0
# Processed by: cddbd v1.5.2PL0 Copyright (c) Steve Scherf et al.
# Submitted via: fre:ac v1.0.31
# 
DISCID=920c010b
DTITLE=Loudness - On The Prowl
DYEAR=1991
DGENRE=Hard Rock
TTITLE0=Down 'N' Dirty
TTITLE1=Playing Games
TTITLE2=Love Toys
TTITLE3=Never Again
TTITLE4=Deadly Player
TTITLE5=Take It Or Leave It
TTITLE6=Girl
TTITLE7=Long Distance
TTITLE8=In The Mirror
TTITLE9=Sleepless Night
TTITLE10=Find A Way
EXTD=\n\n01. Down 'N Dirty\n02. Playing Games\n03. Love Toys\n04. Never Again\n05. Deadly Prayer\n06. Take It Or Leave It\n07. Girl\n08. Long Distance\n09. In The Mirror\n10. Sleepless Night\n11. Find A Way YEAR: 1991
EXTT0=
EXTT1=
EXTT2=
EXTT3=
EXTT4=
EXTT5=
EXTT6=
EXTT7=
EXTT8=
EXTT9=
EXTT10=
PLAYORDER=
